<?xml version="1.0" encoding="UTF-8" standalone="no"?>
<!-- Created with Inkscape (http://www.inkscape.org/) -->

<svg
   width="300"
   height="300"
   viewBox="0 0 79.374998 79.375002"
   version="1.1"
   id="svg5"
   inkscape:version="1.4.3 (0d15f75042, 2025-12-25)"
   sodipodi:docname="绘图-1.svg"
   xml:space="preserve"
   xmlns:inkscape="http://www.inkscape.org/namespaces/inkscape"
   xmlns:sodipodi="http://sodipodi.sourceforge.net/DTD/sodipodi-0.dtd"
   xmlns="http://www.w3.org/2000/svg"
   xmlns:svg="http://www.w3.org/2000/svg"
   xmlns:rdf="http://www.w3.org/1999/02/22-rdf-syntax-ns#"
   xmlns:cc="http://creativecommons.org/ns#"><sodipodi:namedview
     id="namedview7"
     pagecolor="#ffffff"
     bordercolor="#666666"
     borderopacity="1.0"
     inkscape:pageshadow="2"
     inkscape:pageopacity="0.0"
     inkscape:pagecheckerboard="0"
     inkscape:document-units="px"
     showgrid="false"
     units="px"
     width="300px"
     inkscape:zoom="0.8733333"
     inkscape:cx="-91.030538"
     inkscape:cy="196.37405"
     inkscape:window-width="1536"
     inkscape:window-height="892"
     inkscape:window-x="0"
     inkscape:window-y="0"
     inkscape:window-maximized="1"
     inkscape:current-layer="layer2"
     showguides="true"
     inkscape:showpageshadow="2"
     inkscape:deskcolor="#d1d1d1" /><defs
     id="defs2"><inkscape:perspective
       sodipodi:type="inkscape:persp3d"
       inkscape:vp_x="0 : 39.687501 : 1"
       inkscape:vp_y="0 : 1000 : 0"
       inkscape:vp_z="79.374998 : 39.687501 : 1"
       inkscape:persp3d-origin="39.687499 : 26.458334 : 1"
       id="perspective29286" /><pattern
       id="EMFhbasepattern"
       patternUnits="userSpaceOnUse"
       width="6"
       height="6"
       x="0"
       y="0" /><pattern
       id="EMFhbasepattern-3"
       patternUnits="userSpaceOnUse"
       width="6"
       height="6"
       x="0"
       y="0" /><pattern
       id="EMFhbasepattern-9"
       patternUnits="userSpaceOnUse"
       width="6"
       height="6"
       x="0"
       y="0" /><pattern
       id="EMFhbasepattern-98"
       patternUnits="userSpaceOnUse"
       width="6"
       height="6"
       x="0"
       y="0" /><pattern
       id="EMFhbasepattern-6"
       patternUnits="userSpaceOnUse"
       width="6"
       height="6"
       x="0"
       y="0" /><pattern
       id="EMFhbasepattern-69"
       patternUnits="userSpaceOnUse"
       width="6"
       height="6"
       x="0"
       y="0" /><pattern
       id="EMFhbasepattern-36"
       patternUnits="userSpaceOnUse"
       width="6"
       height="6"
       x="0"
       y="0" /><pattern
       id="EMFhbasepattern-60"
       patternUnits="userSpaceOnUse"
       width="6"
       height="6"
       x="0"
       y="0" /><pattern
       id="EMFhbasepattern-5"
       patternUnits="userSpaceOnUse"
       width="6"
       height="6"
       x="0"
       y="0" /><pattern
       id="EMFhbasepattern-981"
       patternUnits="userSpaceOnUse"
       width="6"
       height="6"
       x="0"
       y="0" /><pattern
       id="EMFhbasepattern-2"
       patternUnits="userSpaceOnUse"
       width="6"
       height="6"
       x="0"
       y="0" /><pattern
       id="EMFhbasepattern-37"
       patternUnits="userSpaceOnUse"
       width="6"
       height="6"
       x="0"
       y="0" /><pattern
       id="EMFhbasepattern-27"
       patternUnits="userSpaceOnUse"
       width="6"
       height="6"
       x="0"
       y="0" /><pattern
       id="EMFhbasepattern-58"
       patternUnits="userSpaceOnUse"
       width="6"
       height="6"
       x="0"
       y="0" /></defs><g
     inkscape:label="图层 1"
     inkscape:groupmode="layer"
     id="layer1"
     style="display:inline" /><g
     inkscape:groupmode="layer"
     id="layer2"
     inkscape:label="图层 2"
     style="display:inline"><path
       style="fill:#000000;stroke-width:1.49408"
       d="M 20.792133,75.993714 C 17.526055,73.245492 13.742144,67.416054 11.587156,61.812669 10.122115,58.003278 9.8524192,55.733992 9.9762682,48.258313 10.210858,34.098161 12.009803,24.171479 15.85353,15.827242 c 2.261955,-4.910417 3.116831,-7.6980222 2.732299,-8.9095752 -0.536964,-1.69182 -0.388102,-1.742913 3.675732,-1.261611 3.707011,0.43904 4.928919,1.1165 9.795047,5.4306482 3.057826,2.710968 5.751002,4.929033 5.984834,4.929033 0.233833,0 4.208773,-3.305884 8.833202,-7.3464102 4.624429,-4.0405251 8.810161,-7.3464096 9.301629,-7.3464096 1.568882,0 2.852617,1.8897362 2.852617,4.1992236 0,1.2321 2.031953,8.0458952 4.515449,15.1417672 6.683229,19.095386 7.564254,31.25143 3.183143,43.919758 -0.7763,2.244738 -2.172279,4.925724 -3.102172,5.95775 -0.929896,1.032026 -1.70169,2.684968 -1.715099,3.673204 -0.01915,1.41156 -0.447821,1.74985 -1.999362,1.577834 -1.086239,-0.120423 -2.502315,-0.656612 -3.146836,-1.191518 -1.612788,-1.338493 -7.530335,-10.137318 -7.530335,-11.196883 0,-1.070089 2.036203,-1.09953 5.58831,-0.0808 2.334822,0.669618 2.98098,0.519872 4.556906,-1.056053 2.226808,-2.226808 3.507784,-8.639915 1.926199,-9.643364 -1.191043,-0.755664 -12.39523,-0.911784 -15.012548,-0.209185 -0.944201,0.253464 -2.229823,1.6259 -2.856937,3.049858 -1.605099,3.644627 -4.316841,3.876338 -6.053873,0.517286 L 36.047019,53.40074 28.55973,53.948901 c -9.87428,0.722917 -10.344227,0.888679 -10.344227,3.648685 0,2.591577 3.72012,9.755641 5.400754,10.400561 0.607902,0.233274 2.240846,-0.531385 3.628764,-1.699241 3.253705,-2.737811 3.720676,-2.679338 4.803442,0.601477 0.655552,1.986345 0.654378,3.866798 -0.0043,6.938276 l -0.903618,4.213424 h -3.951071 c -3.032639,0 -4.519703,-0.47847 -6.397305,-2.05837 z M 33.206085,46.555182 c 0.998617,-0.383207 1.331625,-1.569467 1.322274,-4.710276 -0.0069,-2.308941 -0.296704,-4.645349 -0.644064,-5.192019 C 33.032753,35.312749 25.2628,35.182166 20.460241,36.427281 l -3.877272,1.005224 v 3.917675 c 0,6.749479 0.06366,6.79788 8.18298,6.221555 3.907948,-0.277394 7.70601,-0.734843 8.440136,-1.016553 z m 26.097498,-1.89751 c 2.187429,-0.852282 2.283259,-1.093444 1.73437,-4.364619 -1.222298,-7.284434 -1.34185,-7.391963 -7.534196,-6.776456 -3.021964,0.300378 -6.729154,0.7583 -8.2382,1.017606 l -2.743718,0.471464 0.544621,4.17752 c 1.04697,8.030787 0.536999,7.5678 7.639511,6.935706 3.455237,-0.307501 7.324163,-0.96505 8.597612,-1.461221 z M 32.321292,28.546332 c 1.180619,-0.335082 1.360664,-0.975647 0.958614,-3.410578 -0.359942,-2.17991 -1.530117,-3.944671 -4.288225,-6.467148 -2.08626,-1.908025 -4.07256,-3.469136 -4.414001,-3.469136 -0.753559,0 -4.692209,7.634805 -5.635608,10.924242 -0.373597,1.302658 -0.464145,2.716545 -0.201217,3.141969 0.452869,0.732759 10.302337,0.211038 13.580437,-0.719349 z m 24.054729,-1.652506 c 1.010132,-0.243974 1.836312,-0.862918 1.835958,-1.375433 -5.86e-4,-0.848613 -4.613165,-11.123484 -5.303392,-11.813711 -0.1616,-0.1616 -2.615676,1.631708 -5.453502,3.985128 -5.376191,4.458496 -6.655959,6.664927 -5.358765,9.238973 0.685909,1.361059 1.39981,1.465594 6.606056,0.9673 3.210373,-0.307269 6.663513,-0.758284 7.673645,-1.002257 z"
       id="path1" /></g><metadata
     id="metadata822"><rdf:RDF><cc:Work
         rdf:about=""><cc:license
           rdf:resource="http://creativecommons.org/publicdomain/zero/1.0/" /></cc:Work><cc:License
         rdf:about="http://creativecommons.org/publicdomain/zero/1.0/"><cc:permits
           rdf:resource="http://creativecommons.org/ns#Reproduction" /><cc:permits
           rdf:resource="http://creativecommons.org/ns#Distribution" /><cc:permits
           rdf:resource="http://creativecommons.org/ns#DerivativeWorks" /></cc:License></rdf:RDF></metadata></svg>
