<?xml version="1.0" encoding="UTF-8" standalone="no"?>
<!-- Created with Inkscape (http://www.inkscape.org/) -->

<svg
   version="1.1"
   id="svg4016"
   width="300"
   height="300"
   viewBox="0 0 300 300"
   sodipodi:docname="朱-oracle.svg"
   xml:space="preserve"
   inkscape:version="1.2.2 (732a01da63, 2022-12-09)"
   xmlns:inkscape="http://www.inkscape.org/namespaces/inkscape"
   xmlns:sodipodi="http://sodipodi.sourceforge.net/DTD/sodipodi-0.dtd"
   xmlns="http://www.w3.org/2000/svg"
   xmlns:svg="http://www.w3.org/2000/svg"><defs
     id="defs4020" /><sodipodi:namedview
     id="namedview4018"
     pagecolor="#ffffff"
     bordercolor="#666666"
     borderopacity="1.0"
     inkscape:showpageshadow="2"
     inkscape:pageopacity="0.0"
     inkscape:pagecheckerboard="0"
     inkscape:deskcolor="#d1d1d1"
     showgrid="false"
     inkscape:zoom="1.9736716"
     inkscape:cx="13.680087"
     inkscape:cy="168.72108"
     inkscape:window-width="1920"
     inkscape:window-height="982"
     inkscape:window-x="-10"
     inkscape:window-y="-10"
     inkscape:window-maximized="1"
     inkscape:current-layer="g316" /><g
     inkscape:groupmode="layer"
     inkscape:label="Image"
     id="g4022"><g
       transform="matrix(0.48684706,0,0,-0.48684706,-27.972563,301.84518)"
       fill="#000000"
       stroke="none"
       id="g312"><g
         transform="matrix(0.63153484,0,0,0.63153484,151.01161,1.0958607)"
         fill="#000000"
         stroke="none"
         id="g1008"><g
           transform="matrix(0.89959275,0,0,0.89959275,74.757459,4.2661149)"
           fill="#000000"
           stroke="none"
           id="g1879"><g
             transform="matrix(1.0543148,0,0,1.0543148,9.0993744,2.2093034e-5)"
             fill="#000000"
             stroke="none"
             id="g316"><path
               d="m 244.9217,936.98883 c 0,-105.53992 -11.47172,-112.42303 -68.83029,-39.00398 -22.94344,27.53195 -50.47555,43.59238 -57.35861,34.41507 -18.35474,-16.06044 68.83034,-256.96642 110.12852,-309.73663 13.76603,-20.64884 11.47172,-41.29818 -9.17737,-66.53593 -25.2378,-32.12087 -22.94344,-41.29819 11.47168,-68.83014 41.29818,-29.82666 41.29818,-34.41507 -20.6491,-128.48346 C 173.79706,303.74985 114.14414,230.3308 77.434625,195.91573 c -36.70948,-34.41507 -61.94728,-68.83064 -55.06421,-75.71325 16.06038,-16.06043 156.015355,78.00745 188.136115,126.18875 16.06044,27.53196 25.23781,-4.58891 34.41517,-123.89455 13.76608,-165.192728 20.6491,-165.192728 68.83029,11.47152 16.06043,57.35862 32.12078,117.01144 36.70948,133.07187 6.8831,22.94355 29.8265,9.17732 75.7134,-39.00347 78.0077,-82.59637 94.0681,-87.18528 94.0681,-25.23776 0,25.23776 -6.8831,45.8866 -18.3548,45.8866 -9.1774,0 -41.2982,48.1813 -73.419,107.83412 -39.0038,75.71325 -48.1812,110.12882 -27.5321,117.01143 39.0038,11.47202 34.4152,96.36259 -6.883,96.36259 -39.0038,0 -22.9435,59.65282 36.7095,121.60035 41.2981,43.59239 71.1246,176.66426 41.2981,176.66426 -9.1773,0 -41.2981,-39.00398 -71.1246,-84.89058 -52.7699,-87.18527 -52.7699,-87.18527 -59.65292,61.94703 -6.88302,133.07237 -27.53216,181.25316 -78.00771,183.54786 -11.47172,0 -18.35474,-41.29817 -18.35474,-91.77367 z"
               id="path597"
               style="fill:#000000;stroke:none;stroke-width:2.29434" /></g></g></g></g></g></svg>
